<svg xmlns="http://www.w3.org/2000/svg" width="1128" height="576" viewBox="-28 -28 1128 576" font-family="Trebuchet MS, Verdana, sans-serif">
<rect x="-28" y="-28" width="1127.6799999999998" height="576.0" fill="#08090c"/>
<rect x="7" y="11" width="1071.6799999999998" height="520.0" rx="10" fill="#000" opacity="0.5"/>
<rect x="52.0" y="70.0" width="160.0" height="478.0" rx="0.0" fill="#17171a" opacity="1.000"/>
<circle cx="84.5" cy="97.6" r="18.4" fill="#cc314e" opacity="1.000"/>
<circle cx="81.3" cy="79.5" r="3.2" fill="#cc314e" opacity="1.000"/>
<circle cx="67.5" cy="99.0" r="2.6" fill="#cc314e" opacity="1.000"/>
<circle cx="72.7" cy="87.9" r="2.7" fill="#cc314e" opacity="1.000"/>
<circle cx="75.0" cy="82.1" r="2.4" fill="#cc314e" opacity="1.000"/>
<circle cx="68.9" cy="93.2" r="2.2" fill="#cc314e" opacity="1.000"/>
<circle cx="78.3" cy="73.8" r="1.6" fill="#cc314e" opacity="1.000"/>
<circle cx="67.5" cy="84.7" r="1.2" fill="#cc314e" opacity="1.000"/>
<circle cx="72.1" cy="71.1" r="1.1" fill="#cc314e" opacity="1.000"/>
<circle cx="71.4" cy="74.1" r="1.0" fill="#cc314e" opacity="1.000"/>
<circle cx="64.2" cy="92.9" r="0.9" fill="#cc314e" opacity="1.000"/>
<circle cx="67.3" cy="80.5" r="0.9" fill="#cc314e" opacity="1.000"/>
<circle cx="64.2" cy="85.1" r="0.9" fill="#cc314e" opacity="1.000"/>
<rect x="78.4" y="91.2" width="5.2" height="15.4" rx="2.6" fill="#ffffff" opacity="1.000"/>
<rect x="78.4" y="91.2" width="12.7" height="3.6" rx="1.8" fill="#ffffff" opacity="1.000"/>
<rect x="78.4" y="97.1" width="10.3" height="3.2" rx="1.6" fill="#ffffff" opacity="1.000"/>
<rect x="78.4" y="102.9" width="12.9" height="3.7" rx="1.8" fill="#ffffff" opacity="1.000"/>
<defs><linearGradient id="g1" x1="0" y1="0" x2="1" y2="0"><stop offset="0" stop-color="#e5334c" stop-opacity="0.498"/><stop offset="0.5" stop-color="#ff7f99" stop-opacity="0.000"/><stop offset="1" stop-color="#e5334c" stop-opacity="0.498"/></linearGradient></defs>
<rect x="52.0" y="144.0" width="140.0" height="30.0" rx="0.0" fill="url(#g1)"/>
<rect x="186.0" y="151.5" width="3.0" height="15.0" rx="0.0" fill="#b82d43" opacity="1.000"/>
<defs><linearGradient id="g2" x1="0" y1="0" x2="1" y2="0"><stop offset="0" stop-color="#e54c4c" stop-opacity="0.098"/><stop offset="0.5" stop-color="#666666" stop-opacity="0.000"/><stop offset="1" stop-color="#e54c4c" stop-opacity="0.098"/></linearGradient></defs>
<rect x="212.0" y="70.0" width="872.7" height="20.0" rx="0.0" fill="url(#g2)"/>
<rect x="561.0" y="104.5" width="130.4" height="24.0" rx="3.0" fill="none" stroke="#3f3f42" stroke-opacity="0.537" stroke-width="1.0"/>
<rect x="697.3" y="104.5" width="243.2" height="24.0" rx="3.0" fill="none" stroke="#3f3f42" stroke-opacity="0.537" stroke-width="1.0"/>
<line x1="212.0" y1="150.0" x2="1084.7" y2="150.0" stroke="#3f3f42" stroke-opacity="0.537" stroke-width="1.0"/>
<line x1="342.0" y1="156.0" x2="342.0" y2="542.0" stroke="#28282b" stroke-opacity="1.000" stroke-width="1.0"/>
<line x1="472.0" y1="156.0" x2="472.0" y2="542.0" stroke="#28282b" stroke-opacity="1.000" stroke-width="1.0"/>
<line x1="616.6" y1="156.0" x2="616.6" y2="542.0" stroke="#28282b" stroke-opacity="1.000" stroke-width="1.0"/>
<line x1="726.6" y1="156.0" x2="726.6" y2="542.0" stroke="#28282b" stroke-opacity="1.000" stroke-width="1.0"/>
<line x1="896.0" y1="156.0" x2="896.0" y2="542.0" stroke="#28282b" stroke-opacity="1.000" stroke-width="1.0"/>
<line x1="942.0" y1="156.0" x2="942.0" y2="542.0" stroke="#28282b" stroke-opacity="1.000" stroke-width="1.0"/>
<line x1="1075.2" y1="45.5" x2="1084.2" y2="52.5" stroke="#5b6b77" stroke-opacity="1.000" stroke-width="1.6"/>
<line x1="1084.2" y1="45.5" x2="1075.2" y2="52.5" stroke="#5b6b77" stroke-opacity="1.000" stroke-width="1.6"/>
<text x="114.0" y="95.5" fill="#ffffff" opacity="1.000" font-size="13.5" xml:space="preserve">SFN Logs</text>
<text x="87.4" y="164.8" fill="#ffffff" opacity="1.000" font-size="13.5" xml:space="preserve">Журнал</text>
<text x="93.2" y="212.8" fill="#999999" opacity="1.000" font-size="13.5" xml:space="preserve">Поиск</text>
<text x="70.2" y="260.8" fill="#999999" opacity="1.000" font-size="13.5" xml:space="preserve">Настройки</text>
<text x="71.1" y="308.8" fill="#999999" opacity="1.000" font-size="13.5" xml:space="preserve">О скрипте</text>
<text x="60.0" y="521.5" fill="#5b6b77" opacity="1.000" font-size="13.5" xml:space="preserve">v2.2.5</text>
<text x="60.0" y="539.5" fill="#33d872" opacity="1.000" font-size="13.5" xml:space="preserve">Данные: ок</text>
<text x="220.0" y="85.5" fill="#e54c4c" opacity="1.000" font-size="13.5" xml:space="preserve">Журнал состава</text>
<text x="570.5" y="122.0" fill="#888888" opacity="1.000" font-size="13.5" xml:space="preserve">R Обновить</text>
<text x="706.8" y="122.0" fill="#888888" opacity="1.000" font-size="13.5" xml:space="preserve">M Состав из /members</text>
<text x="236.7" y="146.5" fill="#5b6b77" opacity="1.000" font-size="13.5" xml:space="preserve">Никнейм</text>
<text x="350.4" y="146.5" fill="#5b6b77" opacity="1.000" font-size="13.5" xml:space="preserve">Кто принял</text>
<text x="521.2" y="146.5" fill="#5b6b77" opacity="1.000" font-size="13.5" xml:space="preserve">Ранг</text>
<text x="631.2" y="146.5" fill="#5b6b77" opacity="1.000" font-size="13.5" xml:space="preserve">Повышен</text>
<text x="729.1" y="146.5" fill="#5b6b77" opacity="1.000" font-size="13.5" xml:space="preserve">След. повышение</text>
<text x="905.0" y="146.5" fill="#5b6b77" opacity="1.000" font-size="13.5" xml:space="preserve">Ур.</text>
<text x="978.8" y="146.5" fill="#5b6b77" opacity="1.000" font-size="13.5" xml:space="preserve">Статус</text>
<text x="272.2" y="173.5" fill="#ffffff" opacity="1.000" font-size="13.5" xml:space="preserve">_</text>
<text x="366.0" y="173.5" fill="#ffffff" opacity="1.000" font-size="13.5" xml:space="preserve">Fox_River</text>
<text x="479.0" y="173.5" fill="#72a5e5" opacity="1.000" font-size="13.5" xml:space="preserve">Репортёр [4]</text>
<text x="628.0" y="173.5" fill="#ffffff" opacity="1.000" font-size="13.5" xml:space="preserve">21.09.2026</text>
<text x="767.8" y="173.5" fill="#ffffff" opacity="1.000" font-size="13.5" xml:space="preserve">24.09.2026</text>
<text x="914.2" y="173.5" fill="#ffffff" opacity="1.000" font-size="13.5" xml:space="preserve">4</text>
<text x="949.0" y="173.5" fill="#999999" opacity="1.000" font-size="13.5" xml:space="preserve">через 2д 11ч</text>
</svg>